<svg width="60" height="60" viewBox="0 0 60 60" fill="none" xmlns="http://www.w3.org/2000/svg">
<g id="basket_svgrepo.com">
<path id="Vector" d="M2.72498 27.725H57.275" stroke="#F9F4F2" stroke-width="4.55" stroke-miterlimit="10"/>
<path id="Vector_2" d="M44.325 55H15.675C14.5962 55.0029 13.5515 54.6224 12.7272 53.9264C11.903 53.2303 11.3528 52.2641 11.175 51.2L7.27502 27.725H52.725L48.825 51.2C48.6472 52.2641 48.0971 53.2303 47.2728 53.9264C46.4486 54.6224 45.4038 55.0029 44.325 55Z" stroke="#F9F4F2" stroke-width="4.55" stroke-miterlimit="10"/>
<path id="Vector_3" d="M30 41.375L18.65 27.725H41.375L30 41.375Z" stroke="#F9F4F2" stroke-width="4.55" stroke-miterlimit="10"/>
<path id="Vector_4" d="M39.1 45.9H50.45" stroke="#F9F4F2" stroke-width="4.55" stroke-miterlimit="10"/>
<path id="Vector_5" d="M41.375 36.825H50.45" stroke="#F9F4F2" stroke-width="4.55" stroke-miterlimit="10"/>
<path id="Vector_6" d="M20.9 45.9H9.55005" stroke="#F9F4F2" stroke-width="4.55" stroke-miterlimit="10"/>
<path id="Vector_7" d="M18.625 36.825H9.55005" stroke="#F9F4F2" stroke-width="4.55" stroke-miterlimit="10"/>
<path id="Vector_8" d="M30 5C34.2169 5 38.2611 6.67517 41.243 9.657C44.2248 12.6388 45.9 16.6831 45.9 20.9V27.725H14.1V20.9C14.1 16.6831 15.7751 12.6388 18.757 9.657C21.7388 6.67517 25.783 5 30 5Z" stroke="#F9F4F2" stroke-width="4.55" stroke-miterlimit="10"/>
</g>
</svg>
