<svg width="48" height="48" viewBox="0 0 48 48" fill="none" xmlns="http://www.w3.org/2000/svg">
<g id="Instagram Logo 2 Streamline Logos Block - Free">
<path id="Vector" fill-rule="evenodd" clip-rule="evenodd" d="M10 2C7.87827 2 5.84344 2.84285 4.34315 4.34315C2.84285 5.84344 2 7.87827 2 10V38C2 40.1217 2.84285 42.1566 4.34315 43.6569C5.84344 45.1571 7.87827 46 10 46H38C40.1217 46 42.1566 45.1571 43.6569 43.6569C45.1571 42.1566 46 40.1217 46 38V10C46 7.87827 45.1571 5.84344 43.6569 4.34315C42.1566 2.84285 40.1217 2 38 2H10ZM9 18C9 15.6131 9.94821 13.3239 11.636 11.636C13.3239 9.94821 15.6131 9 18 9H30C32.3869 9 34.6761 9.94821 36.364 11.636C38.0518 13.3239 39 15.6131 39 18V30C39 32.3869 38.0518 34.6761 36.364 36.364C34.6761 38.0518 32.3869 39 30 39H18C15.6131 39 13.3239 38.0518 11.636 36.364C9.94821 34.6761 9 32.3869 9 30V18ZM18 11C16.1435 11 14.363 11.7375 13.0503 13.0503C11.7375 14.363 11 16.1435 11 18V30C11 31.8565 11.7375 33.637 13.0503 34.9497C14.363 36.2625 16.1435 37 18 37H30C31.8565 37 33.637 36.2625 34.9497 34.9497C36.2625 33.637 37 31.8565 37 30V18C37 16.1435 36.2625 14.363 34.9497 13.0503C33.637 11.7375 31.8565 11 30 11H18ZM34 16.334C34 16.7761 33.8244 17.2001 33.5117 17.5127C33.1991 17.8254 32.7751 18.001 32.333 18.001C31.8909 18.001 31.4669 17.8254 31.1543 17.5127C30.8416 17.2001 30.666 16.7761 30.666 16.334C30.666 15.8919 30.8416 15.4679 31.1543 15.1553C31.4669 14.8426 31.8909 14.667 32.333 14.667C32.7751 14.667 33.1991 14.8426 33.5117 15.1553C33.8244 15.4679 34 15.8919 34 16.334ZM16.334 24C16.334 21.9669 17.1417 20.017 18.5793 18.5793C20.017 17.1417 21.9669 16.334 24 16.334C26.0331 16.334 27.983 17.1417 29.4207 18.5793C30.8583 20.017 31.666 21.9669 31.666 24C31.666 26.0331 30.8583 27.983 29.4207 29.4207C27.983 30.8583 26.0331 31.666 24 31.666C21.9669 31.666 20.017 30.8583 18.5793 29.4207C17.1417 27.983 16.334 26.0331 16.334 24ZM24 18.334C22.4973 18.334 21.0561 18.931 19.9935 19.9935C18.931 21.0561 18.334 22.4973 18.334 24C18.334 25.5027 18.931 26.9439 19.9935 28.0065C21.0561 29.069 22.4973 29.666 24 29.666C25.5027 29.666 26.9439 29.069 28.0065 28.0065C29.069 26.9439 29.666 25.5027 29.666 24C29.666 22.4973 29.069 21.0561 28.0065 19.9935C26.9439 18.931 25.5027 18.334 24 18.334Z" fill="#FEE8A4"/>
</g>
</svg>
