<svg width="48" height="48" viewBox="0 0 48 48" fill="none" xmlns="http://www.w3.org/2000/svg">
<g id="Tiktok Streamline Flex Solid - Free" clip-path="url(#clip0_94_29)">
<g id="tiktok">
<path id="Subtract" fill-rule="evenodd" clip-rule="evenodd" d="M12.539 1.62729C16.2208 1.2169 20.0627 0.856934 23.9998 0.856934C27.9369 0.856934 31.7788 1.2169 35.4605 1.62729C41.193 2.26624 45.799 6.86825 46.4134 12.611C46.8053 16.2738 47.1426 20.09 47.1426 23.9998C47.1426 27.9096 46.8053 31.7258 46.4134 35.3885C45.799 41.1313 41.193 45.7335 35.4605 46.3722C31.7788 46.7826 27.9369 47.1426 23.9998 47.1426C20.0627 47.1426 16.2208 46.7826 12.539 46.3722C6.8066 45.7335 2.20062 41.1313 1.5862 35.3885C1.19433 31.7258 0.856934 27.9096 0.856934 23.9998C0.856934 20.09 1.19433 16.2738 1.5862 12.611C2.20061 6.86825 6.8066 2.26624 12.539 1.62729ZM28.5665 9.87949C28.3197 8.81893 27.3168 8.1121 26.235 8.23628C25.1532 8.3605 24.3365 9.27627 24.3365 10.3652V30.171C24.3365 33.1096 21.9543 35.4917 19.0157 35.4917C16.077 35.4917 13.6948 33.1096 13.6948 30.171C13.6948 27.2323 16.077 24.8501 19.0157 24.8501C20.1992 24.8501 21.1585 23.8907 21.1585 22.7073C21.1585 21.5238 20.1992 20.5644 19.0157 20.5644C13.7101 20.5644 9.40909 24.8654 9.40909 30.171C9.40909 35.4766 13.7101 39.7774 19.0157 39.7774C24.3213 39.7774 28.6223 35.4766 28.6223 30.171V18.2087C30.6816 19.9551 33.3312 20.9143 36.4459 20.9143C37.6294 20.9143 38.5887 19.9549 38.5887 18.7715C38.5887 17.588 37.6294 16.6286 36.4459 16.6286C34.1825 16.6286 32.5001 15.9293 31.2644 14.8272C30.0037 13.7028 29.067 12.0301 28.5665 9.87949Z" fill="#FEE8A4"/>
</g>
</g>
<defs>
<clipPath id="clip0_94_29">
<rect width="48" height="48" fill="white"/>
</clipPath>
</defs>
</svg>
